<svg width="611" height="755" viewBox="0 0 611 755" fill="none" xmlns="http://www.w3.org/2000/svg">
<g filter="url(#filter0_d_174_1881)">
<path d="M247.484 121.831C250.803 112.983 258.749 106.7 268.123 105.511L535.573 71.5832C543.18 70.6182 549.908 76.5467 549.908 84.2148V662.267C549.908 669.299 544.208 675 537.176 675H76.7499C58.9688 675 46.6617 657.239 52.9063 640.591L247.484 121.831Z" fill="#1B725D"/>
</g>
<g filter="url(#filter1_d_174_1881)">
<path d="M59.1494 25.8682H592V631.103H414.418C398.886 631.103 384.593 622.618 377.156 608.982L59.1494 25.8682Z" fill="#1B725D"/>
</g>
<g clip-path="url(#clip0_174_1881)">
<path d="M407.575 726.654H213.564C212.362 726.653 211.209 726.135 210.358 725.214C209.508 724.293 209.029 723.045 209.028 721.743V578.324C209.029 577.022 209.508 575.773 210.358 574.853C211.209 573.932 212.362 573.414 213.564 573.413H407.575C408.777 573.414 409.93 573.932 410.781 574.853C411.631 575.773 412.11 577.022 412.111 578.324V721.743C412.11 723.045 411.631 724.293 410.781 725.214C409.93 726.135 408.777 726.653 407.575 726.654Z" fill="white"/>
<path d="M407.575 726.654H213.564C212.362 726.653 211.209 726.135 210.358 725.214C209.508 724.293 209.029 723.045 209.028 721.743V578.324C209.029 577.022 209.508 575.773 210.358 574.853C211.209 573.932 212.362 573.414 213.564 573.413H407.575C408.777 573.414 409.93 573.932 410.781 574.853C411.631 575.773 412.11 577.022 412.111 578.324V721.743C412.11 723.045 411.631 724.293 410.781 725.214C409.93 726.135 408.777 726.653 407.575 726.654ZM213.564 574.504C212.629 574.505 211.732 574.908 211.071 575.624C210.409 576.34 210.037 577.311 210.036 578.324V721.743C210.037 722.756 210.409 723.727 211.071 724.443C211.732 725.159 212.629 725.562 213.564 725.563H407.575C408.51 725.562 409.407 725.159 410.068 724.443C410.73 723.727 411.102 722.756 411.103 721.743V578.324C411.102 577.311 410.73 576.34 410.068 575.624C409.407 574.908 408.51 574.505 407.575 574.504H213.564Z" fill="#3F3D56"/>
<path d="M333.027 725.791H288.111V645.291C288.113 643.381 288.814 641.551 290.061 640.201C291.308 638.851 292.999 638.092 294.763 638.089H326.375C328.139 638.092 329.829 638.851 331.076 640.201C332.324 641.551 333.025 643.381 333.027 645.291V725.791Z" fill="#E6E6E6"/>
<path d="M396.993 542.841H371.343V496.434C371.344 495.132 371.823 493.883 372.673 492.963C373.523 492.042 374.677 491.524 375.879 491.522H392.457C393.66 491.524 394.813 492.042 395.663 492.963C396.514 493.883 396.992 495.132 396.993 496.434V542.841Z" fill="white"/>
<path d="M396.993 542.841H371.343V496.434C371.344 495.132 371.823 493.883 372.673 492.963C373.523 492.042 374.677 491.524 375.879 491.522H392.457C393.66 491.524 394.813 492.042 395.663 492.963C396.514 493.883 396.992 495.132 396.993 496.434V542.841ZM372.351 541.75H395.985V496.434C395.984 495.421 395.612 494.45 394.951 493.734C394.289 493.018 393.392 492.615 392.457 492.614H375.879C374.944 492.615 374.047 493.018 373.386 493.734C372.724 494.45 372.352 495.421 372.351 496.434V541.75Z" fill="#3F3D56"/>
<path d="M252.374 562.383C279.654 562.383 301.768 538.442 301.768 508.91C301.768 479.378 279.654 455.437 252.374 455.437C225.095 455.437 202.98 479.378 202.98 508.91C202.98 538.442 225.095 562.383 252.374 562.383Z" fill="#F2F2F2"/>
<path d="M384.937 483.387C380.488 483.235 376.528 478.843 376.497 474.025C376.465 469.207 380.366 464.754 384.812 464.534C394.712 464.044 402.817 452.542 400.639 442.077C398.46 431.611 386.582 424.985 377.445 429.138C370.436 432.325 363.353 422.285 365.129 414.283C366.906 406.281 373.628 400.908 379.848 396.176C386.068 391.444 392.721 385.889 394.223 377.821C395.724 369.753 388.039 360.089 381.267 363.829" fill="#E6E6E6"/>
<path d="M269.14 661.473H231.199C229.686 661.471 228.235 660.82 227.165 659.661C226.095 658.502 225.493 656.932 225.491 655.293V621.431C225.493 619.793 226.095 618.222 227.165 617.063C228.235 615.905 229.686 615.253 231.199 615.251H269.14C270.654 615.253 272.105 615.905 273.175 617.063C274.245 618.222 274.847 619.793 274.849 621.431V655.293C274.847 656.932 274.245 658.502 273.175 659.661C272.105 660.819 270.654 661.471 269.14 661.473Z" fill="#E6E6E6"/>
<path d="M390.818 661.473H352.877C351.363 661.471 349.912 660.819 348.842 659.661C347.772 658.502 347.17 656.932 347.168 655.293V621.431C347.17 619.793 347.772 618.222 348.842 617.063C349.912 615.905 351.363 615.253 352.877 615.251H390.818C392.331 615.253 393.782 615.905 394.852 617.063C395.922 618.222 396.524 619.793 396.526 621.431V655.293C396.524 656.932 395.922 658.502 394.852 659.661C393.782 660.819 392.331 661.471 390.818 661.473Z" fill="#E6E6E6"/>
<path d="M195.043 576.362V554.296C195.043 552.682 195.437 551.098 196.183 549.706C196.929 548.314 197.999 547.165 199.281 546.372L312.531 476.299C313.856 475.479 315.359 475.069 316.878 475.109C318.397 475.149 319.881 475.637 321.168 476.526L422.206 546.292C423.393 547.112 424.375 548.246 425.056 549.591C425.738 550.937 426.096 552.449 426.096 553.988V576.362C426.096 578.792 425.204 581.115 423.627 582.822C422.052 584.528 419.924 585.478 417.714 585.478H203.425C201.216 585.478 199.087 584.528 197.512 582.822C195.935 581.115 195.043 578.792 195.043 576.362Z" fill="#1B725D" stroke="black"/>
<path opacity="0.2" d="M417.714 576.154H203.425C201.07 576.154 198.81 575.141 197.145 573.338C195.479 571.534 194.543 569.088 194.543 566.538V575.269C194.543 577.819 195.479 580.265 197.145 582.069C198.81 583.872 201.07 584.885 203.425 584.885H417.714C420.07 584.885 422.329 583.872 423.995 582.069C425.66 580.265 426.596 577.819 426.596 575.269V566.538C426.596 569.088 425.66 571.534 423.995 573.338C422.329 575.141 420.07 576.154 417.714 576.154Z" fill="black"/>
<path d="M435.612 651.664C435.612 643.289 438.758 629.087 443.862 616.975C446.413 610.922 449.439 605.425 452.781 601.449C456.132 597.461 459.728 595.089 463.414 595.089C467.1 595.089 470.696 597.461 474.048 601.449C477.389 605.425 480.415 610.922 482.966 616.975C488.07 629.087 491.216 643.289 491.216 651.664C491.216 659.67 488.278 667.341 483.059 672.99C477.842 678.639 470.774 681.803 463.414 681.803C456.054 681.803 448.986 678.639 443.769 672.99C438.55 667.341 435.612 659.67 435.612 651.664Z" fill="#1B725D" stroke="black"/>
<path d="M463.414 726.003C463.281 726.003 463.152 725.945 463.058 725.843C462.963 725.741 462.91 725.602 462.91 725.457V615.44C462.91 615.295 462.963 615.157 463.058 615.054C463.152 614.952 463.281 614.895 463.414 614.895C463.548 614.895 463.676 614.952 463.771 615.054C463.865 615.157 463.918 615.295 463.918 615.44V725.457C463.918 725.602 463.865 725.741 463.771 725.843C463.676 725.945 463.548 726.003 463.414 726.003Z" fill="#3F3D56"/>
<path d="M463.414 664.228C463.316 664.228 463.219 664.197 463.137 664.138C463.054 664.079 462.99 663.996 462.951 663.897C462.912 663.799 462.901 663.691 462.918 663.586C462.936 663.481 462.981 663.383 463.049 663.306L477.436 646.962C477.482 646.91 477.537 646.868 477.597 646.839C477.658 646.81 477.723 646.794 477.789 646.793C477.855 646.791 477.921 646.803 477.983 646.829C478.045 646.855 478.101 646.894 478.149 646.943C478.197 646.993 478.235 647.052 478.262 647.117C478.289 647.183 478.304 647.253 478.305 647.325C478.307 647.397 478.295 647.468 478.272 647.535C478.248 647.602 478.212 647.663 478.166 647.715L463.779 664.059C463.732 664.113 463.676 664.155 463.613 664.184C463.55 664.213 463.482 664.228 463.414 664.228Z" fill="#3F3D56"/>
<path d="M463.414 636.672C463.288 636.672 463.166 636.621 463.074 636.529L450.641 624.223C450.591 624.174 450.552 624.116 450.523 624.051C450.495 623.986 450.479 623.916 450.476 623.844C450.473 623.772 450.483 623.701 450.506 623.633C450.528 623.566 450.563 623.504 450.608 623.451C450.652 623.398 450.706 623.355 450.766 623.325C450.827 623.294 450.892 623.277 450.958 623.274C451.024 623.271 451.09 623.282 451.153 623.307C451.215 623.331 451.272 623.369 451.321 623.417L463.754 635.724C463.829 635.798 463.881 635.895 463.905 636.002C463.928 636.109 463.92 636.221 463.884 636.324C463.847 636.427 463.782 636.515 463.698 636.577C463.615 636.639 463.515 636.672 463.414 636.672Z" fill="#3F3D56"/>
<path d="M90.1675 617.996C90.1675 605.635 94.8057 584.712 102.322 566.875C106.079 557.96 110.542 549.849 115.478 543.976C120.425 538.09 125.774 534.536 131.301 534.536C136.828 534.536 142.177 538.09 147.123 543.976C152.06 549.849 156.522 557.96 160.279 566.875C167.796 584.712 172.434 605.635 172.434 617.996C172.434 629.829 168.091 641.171 160.372 649.527C152.655 657.882 142.196 662.567 131.301 662.567C120.405 662.567 109.946 657.882 102.229 649.527C94.51 641.171 90.1675 629.829 90.1675 617.996Z" fill="#1B725D" stroke="black"/>
<path d="M131.3 727.094C131.167 727.094 131.039 727.036 130.944 726.934C130.85 726.832 130.796 726.693 130.796 726.548V564.709C130.796 564.564 130.849 564.425 130.944 564.323C131.039 564.221 131.167 564.163 131.3 564.163C131.434 564.163 131.562 564.221 131.657 564.323C131.751 564.425 131.805 564.564 131.805 564.709V726.548C131.805 726.693 131.751 726.832 131.657 726.934C131.562 727.036 131.434 727.094 131.3 727.094Z" fill="#3F3D56"/>
<path d="M131.3 636.22C131.202 636.22 131.105 636.189 131.023 636.13C130.941 636.072 130.876 635.988 130.837 635.89C130.798 635.791 130.787 635.683 130.804 635.578C130.822 635.473 130.868 635.376 130.936 635.298L152.099 611.255C152.192 611.15 152.319 611.09 152.452 611.086C152.586 611.083 152.715 611.137 152.812 611.237C152.909 611.336 152.965 611.474 152.968 611.619C152.972 611.763 152.922 611.903 152.829 612.008L131.665 636.051C131.618 636.105 131.562 636.147 131.499 636.176C131.436 636.206 131.369 636.221 131.3 636.22Z" fill="#3F3D56"/>
<path d="M131.301 595.684C131.175 595.685 131.053 595.634 130.961 595.542L112.671 577.438C112.572 577.341 112.513 577.204 112.507 577.06C112.501 576.915 112.549 576.774 112.639 576.667C112.729 576.56 112.855 576.497 112.988 576.49C113.122 576.484 113.252 576.535 113.351 576.633L131.641 594.736C131.716 594.81 131.768 594.907 131.792 595.015C131.815 595.122 131.807 595.234 131.771 595.336C131.734 595.439 131.669 595.527 131.585 595.589C131.502 595.651 131.402 595.684 131.301 595.684Z" fill="#3F3D56"/>
<path d="M443.644 725.948C443.691 725.988 443.742 726.024 443.79 726.063H484.775C485.578 722.54 485.862 719.014 484.662 715.952C482.953 711.588 477.895 708.864 473.874 710.738C472.921 711.194 472.091 711.905 471.462 712.804C469.89 709.758 467.071 707.462 463.817 707.465C459.741 707.468 456.351 711.077 455.245 715.246C453.464 711.991 449.945 709.717 446.507 710.695C440.755 712.332 438.938 722.011 443.644 725.948Z" fill="#E6E6E6"/>
<path d="M91.5395 726.923C91.6357 727.003 91.7374 727.076 91.8348 727.155H174.573C176.194 720.044 176.767 712.925 174.345 706.743C170.895 697.934 160.683 692.435 152.565 696.218C150.642 697.139 148.966 698.574 147.696 700.389C144.524 694.241 138.833 689.605 132.264 689.61C124.034 689.617 117.192 696.903 114.959 705.318C111.363 698.748 104.261 694.156 97.3187 696.131C85.7078 699.435 82.0403 718.975 91.5395 726.923Z" fill="#E6E6E6"/>
<path d="M506.998 725.502L78.564 726.442L78.5657 727.534L507 726.593L506.998 725.502Z" fill="#3F3D56"/>
<path d="M223.136 703.356C223.238 702.925 223.252 702.474 223.176 702.037C223.1 701.599 222.936 701.185 222.697 700.823C222.457 700.461 222.147 700.161 221.788 699.943C221.429 699.725 221.031 699.594 220.621 699.561L204.613 677.895L200.652 681.892L217.562 702.588C217.557 703.337 217.805 704.064 218.26 704.628C218.716 705.193 219.347 705.557 220.034 705.652C220.721 705.747 221.416 705.565 221.988 705.142C222.56 704.719 222.968 704.084 223.136 703.356Z" fill="#FFB8B8"/>
<path d="M207.684 681.336L202.625 685.531C202.481 685.65 202.315 685.734 202.138 685.778C201.961 685.822 201.778 685.823 201.601 685.783C201.423 685.743 201.256 685.662 201.11 685.546C200.964 685.43 200.843 685.281 200.755 685.109L197.673 679.095C197.113 678.294 196.87 677.286 196.996 676.291C197.122 675.296 197.607 674.396 198.345 673.788C199.083 673.18 200.014 672.913 200.933 673.047C201.852 673.18 202.685 673.703 203.249 674.5L207.795 679.272C207.925 679.408 208.027 679.574 208.092 679.757C208.158 679.94 208.187 680.136 208.176 680.332C208.166 680.528 208.116 680.719 208.031 680.892C207.946 681.066 207.828 681.217 207.684 681.336Z" fill="#3F3D56"/>
<path d="M199.188 668.257C202.741 668.257 205.621 665.139 205.621 661.292C205.621 657.446 202.741 654.328 199.188 654.328C195.635 654.328 192.755 657.446 192.755 661.292C192.755 665.139 195.635 668.257 199.188 668.257Z" fill="#FFB8B8"/>
<path d="M212.92 751.63H216.132L215.826 745.124H211.086L212.92 751.63Z" fill="#FFB8B8"/>
<path d="M212.101 750.494L218.425 750.494C218.954 750.494 219.478 750.607 219.967 750.826C220.456 751.045 220.901 751.367 221.275 751.772C221.649 752.177 221.946 752.658 222.148 753.187C222.351 753.717 222.455 754.284 222.455 754.857V754.999L212.101 754.999L212.101 750.494Z" fill="#2F2E41"/>
<path d="M178.684 746.708L181.416 748.535L184.314 742.826L181.008 740.587L178.684 746.708Z" fill="#FFB8B8"/>
<path d="M178.538 745.276L183.918 748.874C184.368 749.175 184.759 749.57 185.069 750.034C185.379 750.499 185.6 751.025 185.722 751.583C185.844 752.14 185.863 752.718 185.778 753.284C185.694 753.85 185.507 754.392 185.229 754.879L185.16 755L176.351 749.109L178.538 745.276Z" fill="#2F2E41"/>
<path d="M212.688 749.723C212.449 749.723 212.216 749.644 212.02 749.497C211.823 749.35 211.673 749.142 211.588 748.9L199.973 718.836C199.948 718.763 199.905 718.698 199.848 718.65C199.792 718.601 199.724 718.57 199.652 718.561C199.58 718.551 199.507 718.564 199.442 718.596C199.376 718.629 199.319 718.68 199.279 718.745L183.322 745.958C183.166 746.211 182.931 746.395 182.66 746.477C182.389 746.559 182.1 746.532 181.845 746.403L179.662 745.299C179.382 745.157 179.165 744.901 179.057 744.587C178.949 744.274 178.959 743.927 179.085 743.621L192.158 712.073C191.872 711.321 189.088 703.602 193.366 699.788L193.396 699.768L204.996 694.166L205.289 703.8L216.851 747.23C216.895 747.393 216.908 747.564 216.889 747.733C216.871 747.902 216.821 748.065 216.744 748.213C216.666 748.361 216.562 748.491 216.437 748.595C216.313 748.698 216.17 748.774 216.018 748.817L212.99 749.68C212.891 749.708 212.79 749.723 212.688 749.723Z" fill="#2F2E41"/>
<path d="M205.173 680.075C204.731 678.155 204.105 676.221 203.266 675.328C202.957 675.002 202.667 674.656 202.397 674.293C201.833 673.523 201.123 672.893 200.315 672.445C200.611 672.267 200.784 672.055 200.784 671.826C200.784 671.2 199.494 670.692 197.903 670.692C196.311 670.692 195.022 671.2 195.022 671.826C195.025 671.899 195.043 671.97 195.072 672.036C195.101 672.101 195.142 672.16 195.193 672.208C194.154 672.667 193.251 673.425 192.582 674.401C191.914 675.377 191.506 676.532 191.402 677.742C191.03 682.056 190.922 687.571 192.226 691.06C193.32 693.944 193.407 697.161 192.47 700.11C192.407 700.316 192.399 700.536 192.448 700.746C192.497 700.956 192.6 701.147 192.746 701.295C192.892 701.443 193.074 701.543 193.271 701.583C193.467 701.623 193.67 701.601 193.856 701.519L205.366 696.498C205.56 696.413 205.726 696.268 205.843 696.08C205.96 695.893 206.022 695.672 206.022 695.446V687.819C206.031 685.21 205.746 682.609 205.173 680.075Z" fill="#3F3D56"/>
<path d="M183.148 711.487C183.549 711.386 183.924 711.191 184.248 710.916C184.572 710.642 184.836 710.293 185.022 709.896C185.208 709.499 185.311 709.062 185.324 708.617C185.337 708.172 185.26 707.729 185.098 707.32L194.104 681.609L189.537 680.332L181.207 705.779C180.59 706.119 180.109 706.692 179.857 707.39C179.604 708.088 179.597 708.862 179.836 709.566C180.075 710.27 180.545 710.854 181.155 711.208C181.766 711.562 182.475 711.661 183.148 711.487Z" fill="#FFB8B8"/>
<path d="M194.067 686.487L188.296 683.562C188.132 683.479 187.986 683.358 187.869 683.209C187.752 683.059 187.666 682.884 187.616 682.695C187.567 682.506 187.556 682.308 187.585 682.114C187.613 681.92 187.679 681.735 187.779 681.571L191.286 675.837C191.685 674.931 192.399 674.233 193.272 673.896C194.145 673.559 195.106 673.61 195.944 674.038C196.782 674.466 197.43 675.236 197.745 676.18C198.059 677.124 198.016 678.164 197.624 679.073L195.811 685.641C195.759 685.829 195.67 686.003 195.55 686.15C195.431 686.298 195.283 686.416 195.118 686.496C194.952 686.576 194.773 686.617 194.591 686.615C194.41 686.614 194.231 686.57 194.067 686.487Z" fill="#3F3D56"/>
<path d="M205.097 659.578C205.387 659.616 205.681 659.558 205.941 659.413C206.416 659.077 206.369 658.313 206.208 657.724C205.808 656.313 205.086 655.033 204.109 654.003C203.131 652.973 201.93 652.227 200.616 651.832C199.7 651.569 198.541 651.579 198.017 652.434C196.7 651.484 195.113 651.077 193.543 651.286C191.973 651.495 190.524 652.306 189.458 653.572C188.417 654.894 187.723 656.495 187.449 658.207C186.899 661.122 184.545 667.136 185.849 669.756C186.717 671.499 190.71 670.141 192.4 670.9C193.241 671.296 194.16 671.462 195.074 671.382C195.989 671.302 196.871 670.979 197.643 670.442C198.398 669.877 198.966 669.065 199.262 668.125C199.558 667.185 199.568 666.166 199.288 665.22C198.993 664.524 198.652 663.853 198.268 663.209C197.883 662.558 197.726 661.78 197.825 661.014C198.061 659.849 203.139 659.535 205.097 659.578Z" fill="#2F2E41"/>
</g>
<defs>
<filter id="filter0_d_174_1881" x="0.329788" y="46.0143" width="600.51" height="705.383" filterUnits="userSpaceOnUse" color-interpolation-filters="sRGB">
<feFlood flood-opacity="0" result="BackgroundImageFix"/>
<feColorMatrix in="SourceAlpha" type="matrix" values="0 0 0 0 0 0 0 0 0 0 0 0 0 0 0 0 0 0 127 0" result="hardAlpha"/>
<feOffset dy="25.4657"/>
<feGaussianBlur stdDeviation="25.4657"/>
<feComposite in2="hardAlpha" operator="out"/>
<feColorMatrix type="matrix" values="0 0 0 0 0.278431 0 0 0 0 0.290196 0 0 0 0 0.341176 0 0 0 0.25 0"/>
<feBlend mode="normal" in2="BackgroundImageFix" result="effect1_dropShadow_174_1881"/>
<feBlend mode="normal" in="SourceGraphic" in2="effect1_dropShadow_174_1881" result="shape"/>
</filter>
<filter id="filter1_d_174_1881" x="8.21797" y="0.402443" width="634.713" height="707.098" filterUnits="userSpaceOnUse" color-interpolation-filters="sRGB">
<feFlood flood-opacity="0" result="BackgroundImageFix"/>
<feColorMatrix in="SourceAlpha" type="matrix" values="0 0 0 0 0 0 0 0 0 0 0 0 0 0 0 0 0 0 127 0" result="hardAlpha"/>
<feOffset dy="25.4657"/>
<feGaussianBlur stdDeviation="25.4657"/>
<feComposite in2="hardAlpha" operator="out"/>
<feColorMatrix type="matrix" values="0 0 0 0 0.278431 0 0 0 0 0.290196 0 0 0 0 0.341176 0 0 0 0.25 0"/>
<feBlend mode="normal" in2="BackgroundImageFix" result="effect1_dropShadow_174_1881"/>
<feBlend mode="normal" in="SourceGraphic" in2="effect1_dropShadow_174_1881" result="shape"/>
</filter>
<clipPath id="clip0_174_1881">
<rect width="428.436" height="392" fill="white" transform="translate(78.564 363)"/>
</clipPath>
</defs>
</svg>
