<svg width="39" height="39" viewBox="0 0 39 39" fill="none" xmlns="http://www.w3.org/2000/svg">
<path fill-rule="evenodd" clip-rule="evenodd" d="M6.62354 9.99178C6.62354 9.48742 6.82389 9.00372 7.18053 8.64708C7.53717 8.29044 8.02087 8.09009 8.52523 8.09009H31.3456C31.8499 8.09009 32.3336 8.29044 32.6903 8.64708C33.0469 9.00372 33.2473 9.48742 33.2473 9.99178C33.2473 10.4961 33.0469 10.9798 32.6903 11.3365C32.3336 11.6931 31.8499 11.8935 31.3456 11.8935H8.52523C8.02087 11.8935 7.53717 11.6931 7.18053 11.3365C6.82389 10.9798 6.62354 10.4961 6.62354 9.99178ZM6.62354 19.5003C6.62354 18.9959 6.82389 18.5122 7.18053 18.1556C7.53717 17.7989 8.02087 17.5986 8.52523 17.5986H31.3456C31.8499 17.5986 32.3336 17.7989 32.6903 18.1556C33.0469 18.5122 33.2473 18.9959 33.2473 19.5003C33.2473 20.0046 33.0469 20.4883 32.6903 20.845C32.3336 21.2016 31.8499 21.402 31.3456 21.402H8.52523C8.02087 21.402 7.53717 21.2016 7.18053 20.845C6.82389 20.4883 6.62354 20.0046 6.62354 19.5003ZM6.62354 29.0087C6.62354 28.5044 6.82389 28.0207 7.18053 27.664C7.53717 27.3074 8.02087 27.107 8.52523 27.107H31.3456C31.8499 27.107 32.3336 27.3074 32.6903 27.664C33.0469 28.0207 33.2473 28.5044 33.2473 29.0087C33.2473 29.5131 33.0469 29.9968 32.6903 30.3534C32.3336 30.7101 31.8499 30.9104 31.3456 30.9104H8.52523C8.02087 30.9104 7.53717 30.7101 7.18053 30.3534C6.82389 29.9968 6.62354 29.5131 6.62354 29.0087Z" fill="#212121"/>
</svg>
