<svg width="23" height="22" viewBox="0 0 23 22" fill="none" xmlns="http://www.w3.org/2000/svg">
<path d="M10.9001 2.68092C11.1275 1.98094 12.1178 1.98094 12.3452 2.68092L13.8402 7.28189C13.9419 7.59493 14.2336 7.80688 14.5628 7.80688H19.4005C20.1365 7.80688 20.4425 8.74871 19.8471 9.18132L15.9333 12.0249C15.667 12.2183 15.5556 12.5613 15.6573 12.8743L17.1522 17.4753C17.3797 18.1753 16.5785 18.7574 15.983 18.3247L12.0692 15.4812C11.8029 15.2877 11.4424 15.2877 11.1761 15.4812L7.26224 18.3247C6.6668 18.7574 5.86563 18.1753 6.09307 17.4753L7.58802 12.8743C7.68973 12.5613 7.57831 12.2183 7.31202 12.0249L3.3982 9.18132C2.80275 8.74871 3.10877 7.80688 3.84478 7.80688H8.68253C9.01168 7.80688 9.3034 7.59493 9.40511 7.28189L10.9001 2.68092Z" fill="#1B725D"/>
</svg>
